<?xml version="1.0" encoding="UTF-8" standalone="no"?>
<!DOCTYPE svg PUBLIC "-//W3C//DTD SVG 1.1//EN" "http://www.w3.org/Graphics/SVG/1.1/DTD/svg11.dtd">
<svg width="100%" height="100%" viewBox="0 0 1049 1049" version="1.1" xmlns="http://www.w3.org/2000/svg" xmlns:xlink="http://www.w3.org/1999/xlink" xml:space="preserve" xmlns:serif="http://www.serif.com/" style="fill-rule:evenodd;clip-rule:evenodd;stroke-linecap:round;stroke-linejoin:round;stroke-miterlimit:1.5;">
    <g transform="matrix(1,0,0,1,-15.7898,-15.7898)">
        <g transform="matrix(58.2456,0,0,58.2456,-157.491,-158.947)">
            <path d="M4.375,21L2.975,19.6L13.225,9.35C12.925,8.65 12.883,7.858 13.1,6.975C13.317,6.092 13.792,5.3 14.525,4.6C15.408,3.717 16.392,3.2 17.475,3.05C18.558,2.9 19.442,3.167 20.125,3.85C20.808,4.533 21.075,5.417 20.925,6.5C20.775,7.583 20.258,8.567 19.375,9.45C18.675,10.183 17.883,10.658 17,10.875C16.117,11.092 15.325,11.05 14.625,10.75L13.375,12L20.975,19.6L19.575,21L11.975,13.45L4.375,21ZM7.325,12.45L4.325,9.45C3.425,8.55 2.975,7.475 2.975,6.225C2.975,4.975 3.425,3.9 4.325,3L10.525,9.25L7.325,12.45Z" style="fill-rule:nonzero;"/>
            <clipPath id="_clip1">
                <path d="M4.375,21L2.975,19.6L13.225,9.35C12.925,8.65 12.883,7.858 13.1,6.975C13.317,6.092 13.792,5.3 14.525,4.6C15.408,3.717 16.392,3.2 17.475,3.05C18.558,2.9 19.442,3.167 20.125,3.85C20.808,4.533 21.075,5.417 20.925,6.5C20.775,7.583 20.258,8.567 19.375,9.45C18.675,10.183 17.883,10.658 17,10.875C16.117,11.092 15.325,11.05 14.625,10.75L13.375,12L20.975,19.6L19.575,21L11.975,13.45L4.375,21ZM7.325,12.45L4.325,9.45C3.425,8.55 2.975,7.475 2.975,6.225C2.975,4.975 3.425,3.9 4.325,3L10.525,9.25L7.325,12.45Z" clip-rule="nonzero"/>
            </clipPath>
            <g clip-path="url(#_clip1)">
                <g transform="matrix(0.0244035,0,0,0.0244035,-0.993179,-1.98186)">
                    <circle cx="531.406" cy="572.944" r="300.796" style="fill:none;stroke:rgb(220,136,80);stroke-width:107.14px;"/>
                </g>
            </g>
        </g>
    </g>
</svg>
